<svg width="719" height="866" viewBox="0 0 719 866" fill="none" xmlns="http://www.w3.org/2000/svg">
<path d="M156.066 0.266687C100.6 0.666687 92.3331 0.933353 92.3331 2.66669C92.3331 3.73335 91.3997 4.66669 90.3331 4.66669C88.5997 4.66669 88.3331 7.60002 88.3331 22.5334C88.3331 43.7334 90.3331 42 66.0664 42C52.3331 42 49.6664 42.2667 49.6664 44C49.6664 45.0667 49.1331 46 48.3331 46C47.6664 46 46.8664 53.3334 46.7331 63.6L46.3331 81.3334L26.0664 81.7334L5.66641 82.1334V85.3334C5.66641 87.6 5.13307 88.4 3.79974 87.8667C2.33307 87.3334 1.79974 89.3334 1.26641 96.9334C0.866406 102.267 0.733073 249.467 0.866406 424L0.99974 741.333L23.3997 741.733L45.6664 742V755.733C45.6664 763.2 46.0664 777.867 46.5997 788.267L47.3997 807.333H67.9331H88.3331V822.667V838H123.666H158.866L159.266 851.6L159.666 865.333L360.066 865.467L560.333 865.733V851.867V838H595.666H631V823.333V808.8L651.4 808.4L671.666 808L672.333 775.333L673 742.667L695.133 742.267L717.4 742L718.2 737.867C719.266 732.267 719.266 113.867 718.066 99.6C717.533 91.7334 716.733 88.6667 715.533 88.6667C714.466 88.6667 713.666 87.2 713.666 85.3334V82H693H672.333V64C672.333 52.9334 671.8 46 671 46C670.333 46 669.666 44.9334 669.666 43.6C669.666 41.3334 668.466 41.2 653.8 41.7334C645 42.1334 636.333 42 634.466 41.4667L631 40.6667V22C631 6.26669 630.733 3.33335 629 3.33335C627.933 3.33335 627 2.53335 627 1.60002C627 0.40002 585.4 1.99527e-05 423.266 1.99527e-05C311.266 1.99527e-05 191 0.133353 156.066 0.266687ZM629.666 64.6667V86H648.333H667L666.733 412.267L666.333 738.667L648.066 739.067L629.666 739.467V757.333V775.333L593.533 775.6L557.4 776L557.266 794L557 812L359.4 812.4L161.666 812.667V794V775.333H125.666H89.6664V757.333V739.333H70.9997H52.3331L52.5997 412.267L52.9997 85.3334H71.3997H89.6664V64.2667V43.3334H359.666H629.666V64.6667Z" fill="#DD5620"/>
<path d="M116.333 95.3334V108.533L102.733 108.933L88.9997 109.333L88.5997 212.933L88.333 316.667H358.733H629.266L630.066 302.4C631.266 284.133 631.266 211.2 630.066 153.6L629.266 108.667H614.066H599V95.3334V82.0001H357.666H116.333V95.3334ZM583.4 123.733C582.733 128.133 582.866 128.267 586.6 127.733C590.2 127.2 590.466 127.467 591.666 132.933C592.733 137.467 593.533 138.667 595.8 138.533C598.466 138.533 598.6 139.333 599.533 154.4C599.933 163.2 600.333 190.933 600.333 215.867C600.2 264.267 600.066 266 593.8 266C591.533 266 591 266.8 591 270C591 273.733 590.6 274 587.4 273.733C584.333 273.333 583.666 273.867 583.8 276.267L583.933 279.333H360.066C142.2 279.333 136.333 279.333 136.333 276.8C136.333 275.2 135.133 274.133 132.466 273.6C129.4 272.933 128.466 272 128.066 269.067C127.8 266 127 265.2 123.266 264.933L119 264.533L119.266 201.6L119.666 138.667L123.4 138.267C126.6 137.867 127 137.333 127 132.533C127 127.6 127.266 127.333 131 127.333C134.333 127.333 135 126.8 135 124.267C135 122.533 135.4 120.667 135.933 120.267C136.333 119.733 237.4 119.333 360.466 119.333H584.2L583.4 123.733Z" fill="#DD5620"/>
<path d="M196.066 162L196.466 188.667H210.333H224.333V198.667V208.667H210.333H196.333V235.333V262H241.666H286.999V235.333V208.8L272.733 208.4L258.333 208L257.933 198.267L257.533 188.667L267.933 188.4C273.666 188.267 280.199 188.133 282.333 188.133L286.333 188L286.599 161.6L286.866 135.333H241.266H195.666L196.066 162ZM254.999 174.667V186H242.333H229.666V174.667V163.333H242.333H254.999V174.667ZM253.666 222V234H241.666H229.666V222V210H241.666H253.666V222Z" fill="#DD5620"/>
<path d="M307.266 148.933L307.666 162.667L335.4 163.067L363 163.333V174.667V186H349.666H336.333V198.267V210.667L349 210.267L361.666 209.867V221.867V233.867L335.133 233.067L308.6 232.267L307.666 239.467C307.266 243.467 307 250 307.266 254L307.666 261.333L351.8 261.733L395.933 262L396.866 257.067C397.266 254.267 397.666 242.267 397.666 230.4V208.8L383.4 208.4C367 208 367.4 208.267 369 196L369.8 188.933L383.8 188L397.666 187.067V161.2V135.333H352.333H306.866L307.266 148.933Z" fill="#DD5620"/>
<path d="M417.666 153.867C417.666 164 418.066 176 418.466 180.533L419.399 188.667H433.266H447.133L446.733 198.267L446.333 208L431.933 208.4L417.666 208.8L417.933 235.067L418.333 261.333L462.066 261.733L505.666 262V224V186H477.666H449.666V174.667V163.333H477.666H505.666V149.333V135.333H461.666H417.666V153.867ZM473.666 222.667V234.133L462.066 233.733L450.333 233.333L449.933 222.267L449.533 211.333H461.666H473.666V222.667Z" fill="#DD5620"/>
<path d="M116.333 377.867V396.667H141.666H167V420.667V444.667H127.666H88.333V462.667V480.667H147H205.666V436.667V392.667H191.666H177.666V376.667V360.667H152.066C137.933 360.667 124.066 360.267 121.4 359.867L116.333 358.933V377.867Z" fill="#DD5620"/>
<path d="M255.399 360.267C254.066 360.667 253.666 365.733 253.666 378.8V396.667H280.333H306.999L306.733 420.267L306.333 444L280.066 444.4L253.666 444.667V462.667V480.667L284.733 480.4L315.666 480L316.066 463.6L316.466 447.333H330.999H345.666V420V392.667H330.999H316.466L316.066 376.267L315.666 360L286.333 359.733C270.199 359.6 256.199 359.867 255.399 360.267Z" fill="#DD5620"/>
<path d="M394.2 361.067C393.266 363.733 394.2 395.333 395.4 395.333C395.933 395.333 414.066 395.333 435.666 395.333H475V377.333V359.333H435C403.266 359.333 394.733 359.733 394.2 361.067Z" fill="#DD5620"/>
<path d="M527 378.133V397.067L550.067 396.267C562.6 395.733 585.8 395.333 601.4 395.333H629.667V377.333V359.333H578.333H527V378.133Z" fill="#DD5620"/>
<path d="M526.6 444.267C526.2 444.933 526.066 453.067 526.333 462.667L526.6 480L578.066 480.4L629.666 480.667V462V443.333H578.466C550.2 443.333 526.866 443.733 526.6 444.267Z" fill="#DD5620"/>
<path d="M393.933 462.267L394.333 480L434.733 480.4L475 480.667V462.667V444.667H434.2H393.533L393.933 462.267Z" fill="#DD5620"/>
<path d="M115.533 513.867C115.266 514.133 115 521.6 115 530.267V546H101.666C90.733 546 88.333 546.4 88.333 548C88.333 549.733 93.533 550 127.666 550H167V567.333V584.667H146.733C135.533 584.667 124.066 585.067 121.4 585.467L116.466 586.4L116.066 601.867L115.666 617.333L102.333 618L88.9997 618.667L88.5997 644.933L88.333 671.333H101.666H115V686V700.667H146.333H177.533L177.933 686.267L178.333 672L192.066 671.6L205.666 671.2L205.933 649.333C206.066 637.2 206.2 625.333 206.2 622.933L206.333 618.667L192.066 618.267L177.666 617.867V606C177.666 599.6 178.066 593.333 178.466 592.133C179.133 590.4 181.666 590 192.466 590H205.666V568V546H192.333H179V530V514.133L147.533 513.733C130.2 513.467 115.8 513.6 115.533 513.867ZM167 644V667.333H146.333H125.666V644V620.667H146.333H167V644Z" fill="#DD5620"/>
<path d="M254.2 513.867C253.933 514.133 253.667 521.6 253.667 530.267V546H240.333H227V568V590H240.333H253.667V604V618H240.333H227V644.667V671.333H240.333H253.667V686V700.667H285H316.2L316.6 686.267L317 672L331.4 671.6L345.667 671.2V644.667V618.133L331.4 617.733L317 617.333L316.6 612C316.333 609.067 316.467 602.933 317 598.4L317.933 590.133L332.067 589.733L346.333 589.333V568V546.667L332.067 546.267L317.8 545.867L317.4 529.733L317 513.6L285.933 513.467C268.733 513.333 254.6 513.6 254.2 513.867ZM307 567.333V584.667H286.333H265.667V567.333V550H286.333H307V567.333ZM307 643.733C307 656.533 306.733 667.2 306.467 667.467C306.2 667.733 296.867 667.867 285.8 667.6L265.667 667.2V643.867V620.667H286.333H307V643.733Z" fill="#DD5620"/>
<path d="M370.199 513.867C369.933 514.133 369.666 560.533 369.666 616.8V719.333L372.733 720C374.333 720.4 404.733 720.533 440.333 720.4L504.999 720L505.399 617.067L505.666 514L438.199 513.733C401.133 513.467 370.466 513.6 370.199 513.867ZM463.666 612V621.333L437.399 621.733L410.999 622V612.933C410.999 607.867 411.399 603.333 411.933 602.8C412.466 602.4 424.333 602.133 438.199 602.267L463.666 602.667V612Z" fill="#DD5620"/>
<path d="M527 584V602H578.333H629.667V584V566H578.333H527V584Z" fill="#DD5620"/>
<path d="M527 653.333V671.333H578.333H629.667V653.333V635.333H578.333H527V653.333Z" fill="#DD5620"/>
</svg>
